<?xml version="1.0" encoding="UTF-8" standalone="no"?>
<svg
   xmlns:dc="http://purl.org/dc/elements/1.1/"
   xmlns:cc="http://creativecommons.org/ns#"
   xmlns:rdf="http://www.w3.org/1999/02/22-rdf-syntax-ns#"
   xmlns:svg="http://www.w3.org/2000/svg"
   xmlns="http://www.w3.org/2000/svg"
   xmlns:sodipodi="http://sodipodi.sourceforge.net/DTD/sodipodi-0.dtd"
   xmlns:inkscape="http://www.inkscape.org/namespaces/inkscape"
   viewBox="0.0 0.0 348.0 348.0"
   fill="none"
   id="svg2"
   version="1.1"
   inkscape:version="0.91 r13725"
   sodipodi:docname="The Triangle.svg">
  <metadata
     id="metadata12">
    <rdf:RDF>
      <cc:Work
         rdf:about="">
        <dc:format>image/svg+xml</dc:format>
        <dc:type
           rdf:resource="http://purl.org/dc/dcmitype/StillImage" />
      </cc:Work>
    </rdf:RDF>
  </metadata>
  <defs
     id="defs10" />
  <sodipodi:namedview
     pagecolor="#ffffff"
     bordercolor="#666666"
     borderopacity="1"
     objecttolerance="10"
     gridtolerance="10"
     guidetolerance="10"
     inkscape:pageopacity="0"
     inkscape:pageshadow="2"
     inkscape:window-width="1440"
     inkscape:window-height="785"
     id="namedview8"
     showgrid="false"
     inkscape:zoom="0.67816092"
     inkscape:cx="-39.813559"
     inkscape:cy="174"
     inkscape:window-x="0"
     inkscape:window-y="1"
     inkscape:window-maximized="1"
     inkscape:current-layer="svg2" />
  <path
     d="M5.079 5.776h336.913v337.67H5.08z"
     stroke-width="2"
     stroke="#000"
     id="path4" />
  <path
     d="M282.734 40.554c0-8.376 6.966-15.165 15.56-15.165 4.126 0 8.084 1.597 11.001 4.441 2.918 2.844 4.558 6.702 4.558 10.724 0 8.376-6.966 15.165-15.56 15.165-8.593 0-15.559-6.79-15.559-15.165z"
     stroke-width="2"
     stroke="#000"
     id="path6" />
  <path
     style="fill:#00ff00;fill-opacity:1;stroke:#000000;stroke-width:4;stroke-linejoin:miter;stroke-miterlimit:4;stroke-dasharray:none;stroke-opacity:1"
     inkscape:transform-center-y="-28.038768"
     d="m 274.07828,256.61991 -194.258275,0 97.129135,-168.232604 z"
     id="path4157" />
  <path
     style="fill:#0000ff;fill-opacity:1;stroke:#000000;stroke-width:1.18551016;stroke-linejoin:miter;stroke-miterlimit:4;stroke-dasharray:none;stroke-opacity:1"
     inkscape:transform-center-y="-8.3100658"
     d="M 73.024171,64.653521 15.450377,64.65352 44.237274,14.793152 Z"
     id="path4159" />
  <path
     style="fill:#ff0000;fill-opacity:1;stroke:#000000;stroke-width:1.18551016;stroke-linejoin:miter;stroke-miterlimit:4;stroke-dasharray:none;stroke-opacity:1"
     inkscape:transform-center-y="-8.3100658"
     d="m 73.024171,334.50098 -57.573794,0 28.786897,-49.86037 z"
     id="path4161" />
  <path
     style="fill:#ffff00;fill-opacity:1;stroke:#000000;stroke-width:1.18551016;stroke-linejoin:miter;stroke-miterlimit:4;stroke-dasharray:none;stroke-opacity:1"
     inkscape:transform-center-y="-8.3100658"
     d="m 331.07501,334.50098 -57.57379,0 28.7869,-49.86037 z"
     id="path4163" />
  <g
     style="font-style:normal;font-variant:normal;font-weight:normal;font-stretch:normal;font-size:62.5px;line-height:125%;font-family:'Times New Roman';-inkscape-font-specification:'Times New Roman, ';letter-spacing:0px;word-spacing:0px;fill:#000000;fill-opacity:1;stroke:none;stroke-width:1px;stroke-linecap:butt;stroke-linejoin:miter;stroke-opacity:1"
     id="text4138">
    <path
       d="m 192.46841,166.53342 0.45777,9.70459 -1.15967,0 q -0.33569,-2.56348 -0.91553,-3.66211 -0.94604,-1.77002 -2.53296,-2.594 -1.55639,-0.85449 -4.11987,-0.85449 l -5.82886,0 0,31.61621 q 0,3.8147 0.82398,4.76074 1.15967,1.28174 3.57055,1.28174 l 1.43433,0 0,1.12915 -17.54761,0 0,-1.12915 1.46485,0 q 2.62451,0 3.72314,-1.58691 0.67139,-0.97656 0.67139,-4.45557 l 0,-31.61621 -4.97437,0 q -2.89917,0 -4.11987,0.42725 -1.58691,0.57983 -2.71606,2.22778 -1.12915,1.64795 -1.34278,4.45557 l -1.15967,0 0.48829,-9.70459 33.78295,0 z"
       style="font-style:normal;font-variant:normal;font-weight:normal;font-stretch:normal;font-size:62.5px;font-family:'Times New Roman';-inkscape-font-specification:'Times New Roman, '"
       id="path4145" />
  </g>
</svg>
